<?xml version="1.0" standalone="no"?>
<!DOCTYPE svg PUBLIC "-//W3C//DTD SVG 20010904//EN"
 "http://www.w3.org/TR/2001/REC-SVG-20010904/DTD/svg10.dtd">
<svg version="1.0" xmlns="http://www.w3.org/2000/svg"
 width="512.000000pt" height="512.000000pt" viewBox="0 0 512.000000 512.000000"
 preserveAspectRatio="xMidYMid meet">

<g transform="translate(0.000000,512.000000) scale(0.100000,-0.100000)"
fill="#000000" stroke="none">
<path d="M1357 4694 c-659 -232 -1201 -424 -1203 -427 -3 -3 77 -712 178
-1575 l183 -1570 1016 -556 c559 -306 1022 -556 1029 -556 17 0 2011 1089
2031 1109 12 13 54 343 198 1580 100 860 180 1566 177 1568 -4 5 -2005 710
-2286 807 l-125 42 -1198 -422z m1957 -1812 c410 -910 746 -1658 746 -1663 0
-5 -119 -9 -278 -9 l-279 0 -151 373 -150 372 -643 0 -642 0 -146 -360 c-80
-198 -150 -366 -154 -373 -6 -9 -74 -12 -284 -12 -271 0 -275 0 -270 20 12 47
1493 3318 1499 3312 4 -4 342 -751 752 -1660z"/>
<path d="M2338 2942 c-119 -284 -216 -518 -214 -519 2 -2 199 -2 438 -1 l436
3 -215 510 c-118 281 -218 513 -221 517 -4 4 -105 -226 -224 -510z"/>
</g>
</svg>
