<svg xmlns="http://www.w3.org/2000/svg" width="679" height="679"><path fill="#68217a" d="M0 0h679v679H0z"/><path d="M107 475.664a12.85 12.85 0 01-9.506-4 13.148 13.148 0 01-3.936-9.566 13.356 13.356 0 013.936-9.627 12.76 12.76 0 019.506-4.05 13.1 13.1 0 019.688 4.06 13.256 13.256 0 014 9.63 13.05 13.05 0 01-4 9.57 13.194 13.194 0 01-9.688 3.99zM296.516 473H271.57L182.2 334.59a57.72 57.72 0 01-5.57-10.9h-.727q.968 5.572.97 23.855V473H156.53V299.352h26.4l86.946 136.23q5.45 8.478 7.023 11.625h.48q-1.21-7.507-1.21-25.55v-122.3h20.34zm137.562 0h-92.03V299.352H430.2v18.406h-67.81v57.762h62.728v18.28H362.39v60.79h71.69zm136.11-155.242h-50.133V473H499.71V317.758H449.7v-18.406h120.488zM224.732 274h-7.665v-44.154q0-5.232.643-12.806h-.184a40.97 40.97 0 01-1.974 6.38L193.062 274H189.3l-22.444-50.213a39.31 39.31 0 01-1.974-6.747h-.182q.367 3.948.367 12.9V274h-7.436v-65.818h10.19l20.2 45.9a58.777 58.777 0 013.03 7.895h.28q1.98-5.416 3.17-8.078l20.61-45.72h9.64zm20.15-58.934a4.768 4.768 0 01-3.442-1.377 4.647 4.647 0 01-1.423-3.49 4.82 4.82 0 014.865-4.91 4.862 4.862 0 013.51 1.4 4.9 4.9 0 010 6.95 4.82 4.82 0 01-3.51 1.42zM248.554 274h-7.527v-47h7.527zm47.276-2.157a24.46 24.46 0 01-12.853 3.26q-10.052 0-16.225-6.542t-6.173-16.96q0-11.61 6.65-18.65T285 225.9a24.728 24.728 0 0110.924 2.295v7.705a19.14 19.14 0 00-11.2-3.672A15.134 15.134 0 00272.9 237.4q-4.613 5.164-4.613 13.563 0 8.262 4.337 13.035t11.635 4.773a18.864 18.864 0 0011.56-4.08zm35.892-37.223a9.2 9.2 0 00-5.69-1.516q-4.82 0-8.056 4.544t-3.236 12.393V274h-7.527v-47h7.527v9.685h.184a16.412 16.412 0 014.91-7.734 11.2 11.2 0 017.39-2.77 12.294 12.294 0 014.5.65zm27.814 40.48q-10.42 0-16.638-6.586t-6.22-17.464q0-11.842 6.473-18.5t17.49-6.655q10.51 0 16.41 6.472t5.9 17.946q0 11.246-6.36 18.015t-17.05 6.772zm.55-42.87q-7.25 0-11.474 4.935t-4.223 13.61q0 8.353 4.26 13.172a14.507 14.507 0 0011.43 4.82q7.3 0 11.22-4.73t3.92-13.447q0-8.812-3.93-13.586t-11.223-4.772zm32.038 40.07v-8.078a22.275 22.275 0 0013.54 4.544q9.914 0 9.914-6.61a5.736 5.736 0 00-.85-3.19 8.47 8.47 0 00-2.294-2.317 17.7 17.7 0 00-3.4-1.82q-1.95-.8-4.2-1.68a53.968 53.968 0 01-5.485-2.5 16.56 16.56 0 01-3.95-2.85 10.58 10.58 0 01-2.39-3.6 12.742 12.742 0 01-.8-4.73 11.23 11.23 0 011.51-5.855 13.43 13.43 0 014.04-4.27 18.835 18.835 0 015.76-2.59 25.565 25.565 0 016.67-.87A26.972 26.972 0 01421.112 228v7.62a21.29 21.29 0 00-11.933-3.4 13.947 13.947 0 00-3.81.48 9.33 9.33 0 00-2.914 1.357 6.255 6.255 0 00-1.884 2.09 5.5 5.5 0 00-.667 2.685 6.437 6.437 0 00.665 3.076 6.764 6.764 0 001.95 2.2 14.89 14.89 0 003.12 1.746q1.837.78 4.18 1.7a58.27 58.27 0 015.6 2.454 19.224 19.224 0 014.22 2.848 11.124 11.124 0 012.685 3.65 11.774 11.774 0 01.94 4.91 11.58 11.58 0 01-1.538 6.06 13.176 13.176 0 01-4.11 4.27 18.818 18.818 0 01-5.92 2.525 29.236 29.236 0 01-7.02.83 26.668 26.668 0 01-12.575-2.8zm62.376 2.8q-10.42 0-16.638-6.586t-6.22-17.464q0-11.842 6.473-18.5t17.485-6.65q10.51 0 16.41 6.472t5.9 17.946q0 11.246-6.358 18.015T454.5 275.1zm.55-42.87q-7.25 0-11.474 4.935t-4.223 13.61q0 8.353 4.27 13.172a14.507 14.507 0 0011.428 4.82q7.3 0 11.23-4.73t3.93-13.447q0-8.812-3.92-13.586t-11.22-4.772zm58.108-21.203a10.028 10.028 0 00-5-1.24q-7.895 0-7.895 9.96V227h11.016v6.426h-11.02V274h-7.48v-40.574h-8.04V227h8.03v-7.62q0-7.388 4.27-11.68a14.41 14.41 0 0110.64-4.292 14.75 14.75 0 015.46.826zm27.998 62.513a14.516 14.516 0 01-7.022 1.47q-12.347 0-12.347-13.77v-27.814h-8.078V227h8.07v-11.475l7.52-2.433V227h11.84v6.426H529.3v26.483q0 4.72 1.607 6.74t5.323 2.02a7.913 7.913 0 004.91-1.56z" fill="#fff"/></svg>